<?xml version="1.0" encoding="utf-8"?>
<!-- Generator: Adobe Illustrator 20.0.0, SVG Export Plug-In . SVG Version: 6.00 Build 0)  -->
<svg version="1.1" id="Layer_1" xmlns="http://www.w3.org/2000/svg" xmlns:xlink="http://www.w3.org/1999/xlink" x="0px" y="0px"
	 viewBox="0 0 307.8 88.6" style="enable-background:new 0 0 307.8 88.6;" xml:space="preserve">
<style type="text/css">
	.st0{fill:url(#SVGID_1_);stroke:#FFFFFF;stroke-miterlimit:10;}
	.st1{fill:#10147C;stroke:#FFFFFF;stroke-miterlimit:10;}
	.st2{fill:#10147C;stroke:#FFFFFF;stroke-width:0.5;stroke-miterlimit:10;}
</style>
<title>logo</title>
<radialGradient id="SVGID_1_" cx="382.5301" cy="-193.2301" r="42.3101" gradientTransform="matrix(1 0 0 -1 -335.2 -146.95)" gradientUnits="userSpaceOnUse">
	<stop  offset="0" style="stop-color:#6A84FF"/>
	<stop  offset="8.000000e-02" style="stop-color:#5B6BDF"/>
	<stop  offset="0.2" style="stop-color:#494AB5"/>
	<stop  offset="0.33" style="stop-color:#392F93"/>
	<stop  offset="0.45" style="stop-color:#2D1B78"/>
	<stop  offset="0.58" style="stop-color:#250C65"/>
	<stop  offset="0.71" style="stop-color:#20035A"/>
	<stop  offset="0.85" style="stop-color:#1E0056"/>
</radialGradient>
<path class="st0" d="M47.5,4C24.1,4,5.1,22.9,5,46.3c0,14.3,7.8,27,17.8,34.6V26.4l17,9.9v51.6c2.5,0.4,5,0.6,7.5,0.6
	c23.4,0.1,42.3-18.8,42.4-42.1C89.7,23.1,70.9,4.1,47.5,4z M23.3,23.1h26.5l23.8,13.9l-13,7.8L23.3,23.1z M75.8,54.6L54.4,66.9
	l-12.5-6.8l33.9-20.3V54.6z"/>
<path class="st1" d="M144.8,18.1h11v38h9v-38h11v38c0,0-0.8,7-6.3,7h-18.8c0,0-5.8-1.3-6-7S144.8,18.1,144.8,18.1z"/>
<path class="st1" d="M181.8,63.1h11v-37h10v12l11,0.5V18.1h-25c0,0-6.8,0.3-6.8,6.8S181.8,63.1,181.8,63.1z"/>
<polygon class="st1" points="220.8,63 231.8,63 231.8,18 220.8,24.8 "/>
<path class="st1" d="M269.8,18.1v18h-11v-10h-8v29h8v-9h11v11c0,0-0.5,6-6.3,6h-18.8c0,0-5-2.5-5-6.3V25.1c0,0,0-7,6-7H269.8z"/>
<polygon class="st1" points="220.8,20.3 239.8,9.3 231.8,4 220.8,10.3 "/>
<path class="st1" d="M113.8,18.1c0,0-7,0.8-7,7v53h11v-15h14c0,0,6-0.3,6-5.8V18.1H113.8z M126.8,56.1h-9v-30h9V56.1z"/>
<path class="st1" d="M283.8,18.1c-5.5,0-7,7-7,7v31.8c0,5.5,8,6.3,8,6.3h16.8c5,0,5.3-6,5.3-6v-39H283.8z M296.8,56.1h-9v-30h9V56.1
	z"/>
<polygon class="st2" points="249.8,72.1 252.8,72.1 252.8,68.1 244.8,68.1 242.8,69.3 242.8,77.1 244.4,79.1 250.8,79.1 252.8,77.4 
	252.8,73.1 247.8,73.1 247.8,75.1 248.8,75.1 248.8,77.1 244.8,77.1 244.8,70.1 249.8,70.1 "/>
<polyline class="st2" points="256.8,79.1 259.8,79.1 259.8,70.1 263.8,70.1 263.8,73.1 266.8,73.1 266.8,68.1 257.8,68.1 
	256.8,69.6 256.8,79.1 "/>
<path class="st2" d="M271.8,68.1l-2,1.8v7.8c0.6,0.5,1.3,0.9,2,1.3h8v-11H271.8z M276.8,76.1h-4v-5h4V76.1z"/>
<polygon class="st2" points="283.8,68.1 286.8,68.1 286.8,76.1 289.8,76.1 289.8,68.1 293.8,68.1 293.8,77.1 292.3,79.1 285.8,79.1 
	283.8,77.3 "/>
<path class="st2" d="M299.5,68.1l-2.8,1.6v9.4h4v-3h5.2l1.8-2.3v-5.7H299.5z M304.8,73.1h-4v-3h4V73.1z"/>
</svg>
